<svg xmlns="http://www.w3.org/2000/svg" viewBox="226.84 110.62 266.01 127.19">
  <path fill="#6082bb" d="M270.26695 192.57632c7.93038 0 13.85071-1.48554 17.59668-4.41387 3.70588-2.89829 6.26542-7.91973 7.60698-14.9241 1.25085-6.54702.7743-11.11846-1.41583-13.58545-2.23944-2.51973-7.08114-3.79762-14.39037-3.79762h-12.67346l-7.02592 36.72104h10.30192zm-41.45155 45.23364c-.58828 0-1.14699-.26707-1.52099-.72909-.37468-.46134-.5265-1.06891-.41411-1.65578l18.6201-97.31141c.18011-.94072.99187-1.6204 1.93575-1.6204h40.13103c12.61235 0 21.99996 3.47849 27.90058 10.33998 5.93217 6.89755 7.76407 16.53915 5.44444 28.65642-.94388 4.93665-2.56742 9.52143-4.82526 13.62618-2.26046 4.10942-5.24791 7.91171-8.88083 11.3034-4.34872 4.13412-9.27062 7.1319-14.6158 8.89584-5.26041 1.74058-12.01618 2.62322-20.07931 2.62322h-16.24987l-4.64057 24.25057c-.18011.94139-.99122 1.62107-1.9351 1.62107H228.8154zm141.58219-25.87164c-.5814 0-1.1323-.26706-1.50151-.72908-.37051-.46135-.5204-1.06825-.40945-1.65579l8.13112-43.05641c.77348-4.09473.58271-7.03375-.53662-8.27559-.68522-.75912-2.74346-2.03234-8.82931-2.03234h-14.73088l-10.22311 54.12814c-.1778.94139-.97916 1.62107-1.91096 1.62107h-20.43974c-.58139 0-1.13228-.26706-1.50215-.72908-.36985-.46135-.51975-1.06892-.4088-1.65579l18.38149-97.31141c.17779-.94072.97916-1.6204 1.91096-1.6204h20.43972c.5814 0 1.13231.26707 1.50216.72842.36987.46201.51975 1.06891.4088 1.65645l-4.43575 23.48677h15.84696c12.07242 0 20.25869 2.18992 25.02667 6.69525 4.8601 4.59613 6.37654 11.94502 4.50777 21.84501l-8.55225 45.28371c-.17778.94139-.97851 1.62107-1.91095 1.62107h-20.76417zm68.85209-19.362c8.23465 0 14.38213-1.48554 18.27184-4.41387 3.84807-2.89762 6.50582-7.91906 7.89953-14.9241 1.29884-6.54702.80402-11.11846-1.47083-13.58545-2.32537-2.51973-7.35283-3.79762-14.9425-3.79762h-13.15975l-7.29549 36.72104h10.6972zm-43.04134 45.23364c-.61085 0-1.191-.26707-1.57935-.72909-.38904-.46134-.54739-1.06891-.43069-1.65578l19.33455-97.31141c.1877-.94072 1.02993-1.6204 2.01072-1.6204h41.67013c13.09695 0 22.84408 3.47849 28.97179 10.33998 6.15977 6.89688 8.06128 16.53849 5.65333 28.65642-.98147 4.93665-2.66662 9.52143-5.01108 13.62618-2.34721 4.10942-5.44928 7.91171-9.22159 11.3034-4.51558 4.13412-9.62632 7.1319-15.17661 8.89584-5.46223 1.74058-12.47721 2.62322-20.84974 2.62322h-16.87403l-4.81658 24.25057c-.18769.94139-1.02993 1.62107-2.01071 1.62107h-21.67014z"/>
</svg>
