<svg xmlns="http://www.w3.org/2000/svg" fill="none" viewBox="0 0 1089 365">
  <g clip-path="url(#a)">
    <path fill="#316192" d="M876.171 172.115a150.415 150.415 0 0 0-41.772-11.273 43.351 43.351 0 0 1-19.842-7.619 18.68 18.68 0 0 1 6.579-27.973 54.751 54.751 0 0 1 39.266.835 24.836 24.836 0 0 1 11.905 20.04h10.443a30.16 30.16 0 0 0-8.459-22.545 48.683 48.683 0 0 0-33.627-9.811 59.658 59.658 0 0 0-31.329 6.68c-13.889 8.976-13.471 37.679 2.089 44.255 15.56 6.576 34.149 7.306 50.962 12.525a16.082 16.082 0 0 1 10.443 8.141 20.873 20.873 0 0 1 .84 15.286 20.876 20.876 0 0 1-9.821 11.747 57.565 57.565 0 0 1-42.712-1.148 27.76 27.76 0 0 1-13.576-24.215h-11.174a36.523 36.523 0 0 0 9.085 25.781 54.116 54.116 0 0 0 37.387 11.272 54.533 54.533 0 0 0 34.357-8.976c12.218-9.602 12.741-35.07-1.044-43.002ZM1001.07 186.205a64.41 64.41 0 0 0 1.38-27.656 64.361 64.361 0 0 0-10.362-25.679 50.983 50.983 0 0 0-36.132-18.997 68.647 68.647 0 0 0-41.773 7.411 48.656 48.656 0 0 0-14.46 13.34 48.624 48.624 0 0 0-7.992 17.972 66.663 66.663 0 0 0 4.699 44.569 49.797 49.797 0 0 0 13.77 16.117 49.83 49.83 0 0 0 19.23 8.933 85.571 85.571 0 0 0 36.76 0c4.281-.731 8.25-3.758 12.636-3.758 5.639 3.653 10.443 8.559 16.082 12.63 2.402-2.401 4.804-4.906 7.102-7.515-5.118-4.384-10.444-8.455-15.665-12.734a53.122 53.122 0 0 0 14.725-24.633Zm-17.336 12.108a48.148 48.148 0 0 1-36.551 16.801 48.163 48.163 0 0 1-36.55-16.801 55.293 55.293 0 0 1-6.997-47.178 40.898 40.898 0 0 1 10.499-17.715 40.945 40.945 0 0 1 17.801-10.362 49.201 49.201 0 0 1 46.368 9.394c16.604 15.552 18.066 47.073 5.43 65.861ZM1021.33 212.508v-96.756h-10.44V221.38h78.42v-8.559c-22.87-.522-45.01.104-67.98-.313Z"/>
    <path fill="#1A1A1A" d="M505.861 211.673ZM469.101 217.413ZM461.06 213.343ZM465.76 216.161ZM450.408 196.121c0-1.253 0-2.505-.522-3.758.104 1.253.313 2.505.522 3.758ZM472.548 218.353c-1.149 0-2.298-.522-3.447-.94.836.418 2.298.627 3.447.94ZM450.408 196.121a40.263 40.263 0 0 1 0 0ZM505.861 211.673a27.298 27.298 0 0 1 0 0ZM444.978 135.688a25.387 25.387 0 0 0-19.215-6.576h-43.861V217.1h7.832v-37.366h37.491a24.656 24.656 0 0 0 13.985-4.135 24.637 24.637 0 0 0 9.198-11.312 29.109 29.109 0 0 0-5.43-28.599Zm-3.969 27.137a17.132 17.132 0 0 1-16.604 10.438h-34.566v-36.74h33.313a19.219 19.219 0 0 1 15.873 6.158 23.57 23.57 0 0 1 1.984 19.936v.208ZM611.858 165.33v-6.054h-13.89v-18.891h-8.041v18.787h-10.443v5.949h10.443v39.976a11.272 11.272 0 0 0 4.282 10.438 28.106 28.106 0 0 0 17.544 1.774v-5.845a20.89 20.89 0 0 1-11.487-1.044c-2.507-1.67-2.298-5.323-2.298-8.141v-37.053l13.89.104ZM455.003 169.401ZM455.003 169.401a24.885 24.885 0 0 1 0 0ZM508.68 167.835c.627.835 1.149 1.67 1.671 2.505-.522-.835-1.044-1.67-1.671-2.505ZM515.155 188.71v-3.235c-.104 1.043 0 2.4 0 3.235ZM511.709 173.054Z"/>
    <path fill="#1A1A1A" d="M511.709 173.054a17.261 17.261 0 0 0-1.462-2.714c0-.835-1.044-1.67-1.671-2.505a21.622 21.622 0 0 0-5.639-5.01 42.625 42.625 0 0 0-30.285-4.592 28.83 28.83 0 0 0-15.665 8.559 25.329 25.329 0 0 0-2.088 2.609 24.827 24.827 0 0 0-2.611 4.592 38.4 38.4 0 0 0-2.611 10.438V191.946c0 .522 0 2.505.522 3.757a40.3 40.3 0 0 0 2.298 7.098 25.837 25.837 0 0 0 3.028 4.906c.325.53.71 1.02 1.149 1.461a20.873 20.873 0 0 0 4.177 3.757l1.462 1.044a31.852 31.852 0 0 0 3.238 1.774c1.089.481 2.205.899 3.341 1.253 1.149 0 2.298.626 3.447.939h3.446a42.722 42.722 0 0 0 26.107-4.488 24.114 24.114 0 0 0 3.76-2.609 27.298 27.298 0 0 0 3.342-3.549 34.427 34.427 0 0 0 5.952-19.414v-3.235a37.557 37.557 0 0 0-3.237-11.586Zm-10.443 32.356a23.392 23.392 0 0 1-17.336 7.515 25.076 25.076 0 0 1-19.737-6.367 29.212 29.212 0 0 1-4.699-27.763 20.874 20.874 0 0 1 17.335-14.717 31.342 31.342 0 0 1 21.826 4.07 21.708 21.708 0 0 1 8.146 16.179 28.075 28.075 0 0 1-5.535 21.083ZM564.551 186.727c-9.817-2.401-19.842-2.087-29.554-4.801a8.143 8.143 0 0 1-6.266-8.141 10.437 10.437 0 0 1 10.443-9.707 35.836 35.836 0 0 1 22.139 1.983 13.15 13.15 0 0 1 5.953 10.437h8.459a18.786 18.786 0 0 0-6.266-13.673 39.186 39.186 0 0 0-25.481-5.323 34.261 34.261 0 0 0-17.962 4.906 15.12 15.12 0 0 0-5.207 12.364 15.145 15.145 0 0 0 1.973 6.6 15.148 15.148 0 0 0 4.696 5.042c11.8 4.906 24.959 3.653 36.968 7.515a9.5 9.5 0 0 1 3.802 12.275 9.498 9.498 0 0 1-2.966 3.59 39.702 39.702 0 0 1-26.421 2.296 13.262 13.262 0 0 1-11.383-13.047h-8.772a21.805 21.805 0 0 0 6.265 14.195 38.232 38.232 0 0 0 22.975 5.741 41.788 41.788 0 0 0 23.706-5.01 15.97 15.97 0 0 0 4.595-19.622 17.55 17.55 0 0 0-11.696-7.62ZM680.573 159.381h-7.728v9.289a31.948 31.948 0 0 0-11.488-9.08 44.297 44.297 0 0 0-25.272 0 24.96 24.96 0 0 0-18.588 17.848 36.508 36.508 0 0 0 4.281 28.285 26.834 26.834 0 0 0 18.902 10.438 34.792 34.792 0 0 0 32.06-9.707 38.382 38.382 0 0 1-3.133 21.501 21.623 21.623 0 0 1-18.379 8.246 36.571 36.571 0 0 1-17.649-3.027c-3.655-1.983-4.908-6.68-6.579-10.437h-7.832a19.925 19.925 0 0 0 8.145 14.612 45.55 45.55 0 0 0 22.557 4.488 34.052 34.052 0 0 0 24.855-8.141 27.978 27.978 0 0 0 6.161-20.875c-.209-17.848.418-35.383-.313-53.44Zm-12.219 42.585a25.802 25.802 0 0 1-25.063 7.619 19.743 19.743 0 0 1-16.709-12.316 29.212 29.212 0 0 1 1.253-22.962 20.89 20.89 0 0 1 14.829-9.916 29.364 29.364 0 0 1 22.557 4.175 26.086 26.086 0 0 1 3.133 33.4ZM723.807 157.607a40.123 40.123 0 0 0-18.589 2.296 20.871 20.871 0 0 0-7.623 9.394v-9.916h-8.355V217.1h7.833v-29.955a23.905 23.905 0 0 1 7.31-18.788 27.165 27.165 0 0 1 18.902-3.444l.522-7.306ZM787.927 189.858A36.1 36.1 0 0 0 780.513 167a33.528 33.528 0 0 0-28.614-9.394 29.258 29.258 0 0 0-14.656 3.741 29.219 29.219 0 0 0-10.825 10.559 33.906 33.906 0 0 0 6.474 39.976 39.705 39.705 0 0 0 35.089 5.531 26.506 26.506 0 0 0 18.797-19.1h-8.667a20.884 20.884 0 0 1-13.263 13.569 28.413 28.413 0 0 1-27.883-5.95 25.67 25.67 0 0 1-5.952-15.865c18.902-.313 37.908 0 56.914-.209Zm-56.914-5.323a24.922 24.922 0 0 1 3.345-9.883 24.959 24.959 0 0 1 7.098-7.652 26.009 26.009 0 0 1 34.357 5.845 22.237 22.237 0 0 1 4.178 11.586c-16.605.209-32.792.209-48.978.104Z"/>
    <path fill="#fff" d="M211.367 6.158a137.5 137.5 0 0 0-46.68 0 101.955 101.955 0 0 0-25.481 9.185A162.786 162.786 0 0 0 59.63 7.097a69.884 69.884 0 0 0-26.458 10.814 69.846 69.846 0 0 0-19.91 20.499A111.423 111.423 0 0 0 .628 106.254a516.32 516.32 0 0 0 16.708 76.611 266.288 266.288 0 0 0 25.9 62.625 52.83 52.83 0 0 0 28.822 25.885 32.174 32.174 0 0 0 28.927-7.097 39.694 39.694 0 0 0 14.203 9.185 69.79 69.79 0 0 0 47.829-.835 196.22 196.22 0 0 0 7.728 62.625 44.462 44.462 0 0 0 17.231 23.589 43.359 43.359 0 0 0 31.955 5.323 80.549 80.549 0 0 0 28.405-9.289 53.66 53.66 0 0 0 20.26-23.589 187.78 187.78 0 0 0 11.487-68.47 87.233 87.233 0 0 0 63.285-18.997 23.892 23.892 0 0 0 9.921-24.632 18.698 18.698 0 0 0-19.111-12.838c-8.668.626-17.022 3.34-25.69 3.34a342.043 342.043 0 0 0 41.772-108.237 113.066 113.066 0 0 0 0-48.43 54.163 54.163 0 0 0-16.082-22.963 104.448 104.448 0 0 0-55.035-27.868 153.38 153.38 0 0 0-67.775 3.966Z"/>
    <path fill="#fff" d="M211.262 16.491a134.889 134.889 0 0 1 74.459-2.818 92.735 92.735 0 0 1 49.5 33.087 41.735 41.735 0 0 1 6.371 23.38 163.698 163.698 0 0 1-5.222 42.69 347.37 347.37 0 0 1-45.218 104.375 63.327 63.327 0 0 0 35.819 0c4.909-.94 11.279-2.192 14.934 2.087 3.655 4.28 0 10.438-3.551 14.091a76.059 76.059 0 0 1-65.582 17.117c-2.402 20.354-4.804 40.811-7.937 61.06a50.608 50.608 0 0 1-14.411 31.312 61.73 61.73 0 0 1-29.972 12.004 38.452 38.452 0 0 1-31.329-7.098 48.938 48.938 0 0 1-15.455-31.939 524.202 524.202 0 0 1-2.298-61.477 49.302 49.302 0 0 1-35.611 11.69 41.162 41.162 0 0 1-26.003-8.767 8.67 8.67 0 0 1-1.707-10.212 8.66 8.66 0 0 1 2.334-2.835 95.89 95.89 0 0 1 25.272-8.35c6.161-1.774 9.399-7.724 13.263-12.316a53.814 53.814 0 0 1-20.887-5.532c-9.816 10.437-19.319 21.397-28.613 32.356a25.582 25.582 0 0 1-21.93 10.438 35.315 35.315 0 0 1-22.558-16.492 201.286 201.286 0 0 1-23.601-50.83 519.562 519.562 0 0 1-20.886-87.258 99.634 99.634 0 0 1 12.845-65.652 62.648 62.648 0 0 1 20.315-17.844c7.99-4.399 16.846-7 25.947-7.624a162.781 162.781 0 0 1 71.222 10.438 85.243 85.243 0 0 1 64.642-9.916c1.892.592 3.867.874 5.848.835Zm17.754 6.158c4.595 3.236 9.921 5.532 14.62 8.768a124.013 124.013 0 0 1 43.756 52.814 41.724 41.724 0 0 1 5.013 19.309c0 13.882-4.595 27.451-3.237 41.75a130.501 130.501 0 0 1 .835 44.568 91.871 91.871 0 0 1-5.639 14.613c0 .731 0 2.192.522 2.818 1.775-2.296 3.342-4.697 4.908-7.202a340 340 0 0 0 34.775-81.099 176.079 176.079 0 0 0 7.102-47.178 32.968 32.968 0 0 0-5.431-19.622 82.076 82.076 0 0 0-34.984-25.572 110.959 110.959 0 0 0-62.24-3.967Zm-57.124 1.983a58.085 58.085 0 0 0-38.848 22.65 109.87 109.87 0 0 0-19.633 58.137 62.686 62.686 0 0 1 40.937-7.933 25.28 25.28 0 0 1 11.763 7.104 25.247 25.247 0 0 1 6.303 12.206 128.413 128.413 0 0 1 2.402 55.632c-3.133 14.821-12.218 27.659-15.247 42.585a26.22 26.22 0 0 1 11.279 2.505 21.5 21.5 0 0 1 10.443 19.936c-.522 20.248-.522 40.497.627 60.746a134.502 134.502 0 0 0 3.028 25.05 28.921 28.921 0 0 0 20.886 21.501 55.69 55.69 0 0 0 32.896-6.575 34.747 34.747 0 0 0 15.873-26.512c3.551-21.501 5.953-43.315 8.459-65.025a56.656 56.656 0 0 1 3.864-23.276 24.545 24.545 0 0 1 11.696-8.768 106.716 106.716 0 0 1-10.443-14.403c-10.443-22.232-25.377-43.316-29.867-67.949a31.303 31.303 0 0 1 7.832-30.06 48.374 48.374 0 0 1 34.462-7.306 112.835 112.835 0 0 0-36.759-50.726 97.063 97.063 0 0 0-71.953-19.518Zm-107.563 1.67a49.724 49.724 0 0 0-19.842 7.843 49.693 49.693 0 0 0-14.725 15.433 93.893 93.893 0 0 0-8.876 55.423 494.816 494.816 0 0 0 16.187 73.063 244.997 244.997 0 0 0 24.123 58.241A33.509 33.509 0 0 0 77.383 250.5c6.37 1.357 11.487-3.966 15.142-8.35 8.563-10.437 17.753-20.144 26.525-30.373a54.352 54.352 0 0 1-17.439-46.655 196.746 196.746 0 0 0 1.357-39.872 147.821 147.821 0 0 1 7.206-56.05 97.68 97.68 0 0 1 20.886-36.322 140.216 140.216 0 0 0-66.731-6.576Zm188.915 83.501a21.698 21.698 0 0 0-4.804 21.71c4.699 23.067 18.171 42.794 28.509 63.46 7.832-15.552 3.029-33.296 1.776-49.683a310.707 310.707 0 0 1 3.237-39.767 43.044 43.044 0 0 0-28.718 3.967v.313Zm-140.25 8.454c0 11.064 1.044 22.232 0 33.296a111.29 111.29 0 0 0-1.045 29.434 39.343 39.343 0 0 0 12.745 22.682 39.38 39.38 0 0 0 24.119 9.778 205.243 205.243 0 0 1 9.921-25.572 100.463 100.463 0 0 0 3.446-69.409 15.352 15.352 0 0 0-14.098-11.377 61.007 61.007 0 0 0-35.088 10.855v.313ZM276.845 227.12a16.183 16.183 0 0 0-3.133 12.421A53.076 53.076 0 0 0 297 240.898a53.791 53.791 0 0 0 32.164-13.569c-14.098 1.67-29.449 5.115-42.712-1.879-3.028-2.192-6.892-.313-9.607 1.67Zm-133.253 16.179a241.145 241.145 0 0 1-25.481 8.141 41.79 41.79 0 0 0 50.753-10.438 9.6 9.6 0 0 0-2.244-14.442 9.608 9.608 0 0 0-5.275-1.423c-7.101 5.115-10.13 14.091-17.753 18.162Z"/>
    <path fill="#fff" d="M256.272 112.516a16.714 16.714 0 0 1 16.396-1.148 9.495 9.495 0 0 1-4.787 7.618 9.5 9.5 0 0 1-8.998.21c-2.298-1.043-5.326-4.383-2.611-6.68ZM142.13 112.934a16.714 16.714 0 0 1 14.829 2.609c2.819 2.297 0 6.054-2.193 7.411a10.457 10.457 0 0 1-9.423.709 10.434 10.434 0 0 1-6.137-7.18c-.314-1.67 1.357-3.027 2.924-3.549Z"/>
    <path fill="#316192" d="M229.016 22.65a110.96 110.96 0 0 1 62.658 3.653 82.08 82.08 0 0 1 34.567 25.885 32.974 32.974 0 0 1 5.221 19.518 176.106 176.106 0 0 1-7.101 47.177 340.051 340.051 0 0 1-34.776 81.1c-1.566 2.505-3.132 4.906-4.908 7.202 0-.626 0-2.088-.522-2.818a91.775 91.775 0 0 0 5.639-14.613 130.5 130.5 0 0 0-.835-44.568c-1.358-13.882 3.342-27.451 3.237-41.75a41.733 41.733 0 0 0-4.804-19.31 124.005 124.005 0 0 0-43.756-52.813c-4.699-3.132-10.025-5.428-14.62-8.664Z"/>
    <path fill="#316192" d="M171.892 24.633A97.065 97.065 0 0 1 243.74 44.15a112.83 112.83 0 0 1 36.76 50.726 48.372 48.372 0 0 0-34.462 7.306 31.297 31.297 0 0 0-7.832 30.06c4.49 24.633 19.11 45.717 29.867 67.949a106.716 106.716 0 0 0 10.443 14.403 24.535 24.535 0 0 0-11.696 8.768 56.64 56.64 0 0 0-3.864 23.276c-2.507 21.71-4.909 43.524-8.459 65.025a34.749 34.749 0 0 1-15.874 26.512 55.686 55.686 0 0 1-32.895 6.575 28.921 28.921 0 0 1-20.886-21.501 134.587 134.587 0 0 1-3.029-25.05c-1.149-20.249-1.149-40.498-.626-60.747a21.501 21.501 0 0 0-10.443-19.935 26.226 26.226 0 0 0-11.279-2.505c3.029-14.926 12.114-27.764 15.247-42.585a128.413 128.413 0 0 0-2.402-55.632 25.257 25.257 0 0 0-18.066-19.31 62.685 62.685 0 0 0-40.937 7.933 109.862 109.862 0 0 1 19.633-58.137 58.059 58.059 0 0 1 38.952-22.65Z"/>
    <path fill="#316192" d="M64.329 26.302a140.215 140.215 0 0 1 67.149 6.785 97.68 97.68 0 0 0-20.886 36.322 147.83 147.83 0 0 0-7.624 55.841 196.755 196.755 0 0 1-1.357 39.976 54.356 54.356 0 0 0 17.44 46.656c-8.773 10.437-17.962 19.935-26.526 30.373-3.655 4.383-8.772 9.707-15.142 8.35a33.518 33.518 0 0 1-16.291-15.03 245.009 245.009 0 0 1-24.124-58.137 494.816 494.816 0 0 1-16.187-73.063 93.894 93.894 0 0 1 8.982-55.423 49.695 49.695 0 0 1 14.816-15.086 49.726 49.726 0 0 1 19.75-7.564ZM253.244 109.49a43.044 43.044 0 0 1 28.718-3.967 310.57 310.57 0 0 0-3.237 39.454c1.253 16.387 6.057 34.131-1.776 49.683-10.443-20.875-23.81-40.393-28.509-63.46a21.695 21.695 0 0 1 4.804-21.71Zm3.028 3.026c-2.715 2.297 0 5.637 2.611 6.68a9.5 9.5 0 0 0 8.998-.21 9.503 9.503 0 0 0 4.787-7.618 16.722 16.722 0 0 0-16.396 1.148Z"/>
    <path fill="#316192" d="M112.994 117.944a61.007 61.007 0 0 1 35.088-11.273 15.356 15.356 0 0 1 8.908 3.388 15.341 15.341 0 0 1 5.19 7.989 100.457 100.457 0 0 1-3.446 69.827 205.186 205.186 0 0 0-9.607 25.677 39.381 39.381 0 0 1-24.12-9.778 39.348 39.348 0 0 1-12.744-22.683 111.333 111.333 0 0 1 1.044-29.434c.731-11.481-.104-22.649-.313-33.713Zm29.136-5.01c-1.567 0-3.238 1.67-2.924 3.549a10.424 10.424 0 0 0 2.21 4.323 10.439 10.439 0 0 0 8.724 3.628 10.443 10.443 0 0 0 4.626-1.48c2.402-1.357 5.013-5.114 2.193-7.411a16.723 16.723 0 0 0-14.829-2.609ZM276.845 227.12c2.715-1.983 6.579-3.862 9.607-1.67 13.263 6.993 28.614 3.549 42.712 1.879A53.791 53.791 0 0 1 297 240.898a53.08 53.08 0 0 1-23.288-.835 16.163 16.163 0 0 1 3.133-12.943ZM143.592 243.298c7.623-4.07 10.443-13.046 17.753-17.743a9.604 9.604 0 0 1 9.759 10.884 9.599 9.599 0 0 1-2.24 4.981 41.79 41.79 0 0 1-50.753 10.437 241.054 241.054 0 0 0 25.481-8.559Z"/>
    <path fill="#000" d="M211.367 6.158a153.38 153.38 0 0 1 67.775-3.966 104.448 104.448 0 0 1 55.035 27.868 54.17 54.17 0 0 1 15.665 22.963 113.098 113.098 0 0 1 0 48.43A342.043 342.043 0 0 1 308.07 209.69c8.667 0 17.022-2.714 25.689-3.34a18.699 18.699 0 0 1 19.529 12.838 23.905 23.905 0 0 1-9.921 23.693 87.228 87.228 0 0 1-63.285 18.996 187.777 187.777 0 0 1-11.487 68.47 53.657 53.657 0 0 1-20.26 24.529 80.557 80.557 0 0 1-28.509 9.811 43.361 43.361 0 0 1-31.851-5.845 44.466 44.466 0 0 1-17.127-24.215 196.248 196.248 0 0 1-7.728-62.625 69.802 69.802 0 0 1-47.829.835 39.681 39.681 0 0 1-14.202-9.185 32.18 32.18 0 0 1-29.032 7.723 52.831 52.831 0 0 1-28.823-25.154 266.288 266.288 0 0 1-25.899-62.625A516.32 516.32 0 0 1 .627 106.985a111.423 111.423 0 0 1 12.636-67.844 69.845 69.845 0 0 1 19.91-20.5A69.886 69.886 0 0 1 59.63 7.829a162.784 162.784 0 0 1 79.576 7.828 101.942 101.942 0 0 1 25.481-9.915 137.5 137.5 0 0 1 46.68.417Zm0 10.438a18.385 18.385 0 0 1-5.848-.731 85.259 85.259 0 0 0-64.642 10.437 162.785 162.785 0 0 0-71.222-10.437 62.683 62.683 0 0 0-25.904 7.275 62.649 62.649 0 0 0-20.463 17.462 99.635 99.635 0 0 0-12.845 65.652 519.572 519.572 0 0 0 20.886 87.258 201.28 201.28 0 0 0 23.497 51.143 35.295 35.295 0 0 0 22.452 16.283 25.58 25.58 0 0 0 21.93-10.438c9.295-10.437 18.798-21.814 28.615-32.356a53.809 53.809 0 0 0 20.886 5.532c-3.864 4.592-7.101 10.437-13.263 12.316a95.951 95.951 0 0 0-25.272 8.35 8.668 8.668 0 0 0-2.678 10.002 8.678 8.678 0 0 0 2.051 3.045 41.164 41.164 0 0 0 26.004 8.768 49.309 49.309 0 0 0 35.819-11.795 524.21 524.21 0 0 0 2.298 61.477 48.938 48.938 0 0 0 15.455 31.939 38.439 38.439 0 0 0 14.887 6.977 38.436 38.436 0 0 0 16.442.121 61.741 61.741 0 0 0 30.181-12.63 50.608 50.608 0 0 0 14.411-31.312c3.133-20.249 5.535-40.707 7.937-61.06a76.059 76.059 0 0 0 65.582-17.117c3.655-3.445 7.102-9.394 3.551-14.091-3.551-4.697-10.443-3.027-14.934-2.088a63.31 63.31 0 0 1-35.819 0 347.37 347.37 0 0 0 45.218-104.375 163.689 163.689 0 0 0 5.222-42.69 41.735 41.735 0 0 0-6.371-23.38 92.736 92.736 0 0 0-49.5-33.086 134.885 134.885 0 0 0-74.667 3.444l.104.105Z"/>
  </g>
  <defs>
    <clipPath id="a">
      <path fill="#fff" d="M0 0h1089v365H0z"/>
    </clipPath>
  </defs>
</svg>
