<svg xmlns="http://www.w3.org/2000/svg" preserveAspectRatio="xMidYMid" viewBox="0 0 512 127.83">
  <path fill="#121212" d="M404.471753 38.3347114v89.4934766h-32.26356V38.3347114h32.26356Zm41.606701-.1759356 14.737353 21.2703356 15.136644-21.2703356h33.259383l-32.264247 42.5399839L512 127.65294h-35.649632l-17.724822-24.279796-17.725508 24.279796h-33.26007l34.853111-45.5494447-32.064258-43.9447195h35.649633Zm-116.089987-2.8266523c24.251997 0 31.521221 16.7167119 31.66418 35.1583206l.002161.5593492v56.1839247h-32.26356l-.000662-47.9209929-.005398-.7204521-.011044-.7064417-.016947-.6924024-.023109-.6783344c-.004379-.1118818-.009026-.2231762-.013945-.3338826l-.032835-.657178c-.012065-.2167043-.025265-.4310518-.039642-.6430378l-.046707-.6288686c-.008387-.1036291-.01708-.2066666-.026083-.3091119l-.057788-.6075608-.065499-.5933195c-.914287-7.7181585-3.900663-11.7254803-11.610215-11.7254803-9.141536 0-13.102703 6.3790098-14.085369 16.5489795l-.064446.7241429c-.119113 1.4607438-.179895 2.9958307-.188542 4.5979786l-.001079 44.345962h-32.263559V79.678196l-.002909-.7274465c-.000976-.1200755-.002201-.2395679-.00368-.3584765l-.011961-.7064417-.018295-.6924024-.024868-.6783344-.03168-.6642373c-.005861-.1095299-.012015-.2184712-.018469-.3268233l-.042346-.6430378-.049755-.6288686-.057404-.6146707c-.837868-8.3033475-3.88549-12.6208018-11.887809-12.6208018-10.449893 0-14.26308 8.6533806-14.338298 21.871101l-.001139 44.345962h-32.263559V37.7402416h32.263559v13.4439517c4.779813-9.8317745 14.339437-15.8520698 27.68305-15.8520698 15.733863 0 23.899061 7.2236671 27.683737 17.6581584 4.779812-10.0331383 15.335259-17.6581584 30.271914-17.6581584Zm-170.419715-2.8266524c29.378628 0 45.0925 20.0603237 45.40384 44.020192l.004718.7272335v9.0290685h-62.336859c.796521 11.0365208 8.763103 16.2534229 18.52203 16.2534229 8.649296 0 14.194058-2.9318003 17.209198-9.7608567l.117706-.2715944 25.890706 2.4074309c-4.58051 20.4676292-20.911592 31.9048162-44.412735 31.9048162-28.479571 0-48.793944-17.256805-48.793944-45.7501209 0-28.2926389 20.71229-48.559592 48.39534-48.559592ZM60.3651436 0c32.5412081 0 48.7121614 15.4878282 48.7121614 40.2280805 0 18.5048484-11.379458 30.5729289-26.7518285 32.5845047 12.9766228 2.6149799 20.5624695 10.057192 21.9603325 24.7402524l.202292 2.7002224.176561 2.524265.152582 2.361313.105976 1.780468.113829 2.100782.059027 1.198902.084141 1.904577.067863 1.798859.033631 1.033981.045457 1.656766.039219 1.894356.014222.915377.025647 2.652639.008243 2.768016.000459 1.655001H71.8573101c0-.698342.0053016-1.37106.0136327-2.030812l.0200284-1.305969.0580454-3.1632.0146802-1.060449.009388-1.097133c.0010168-.186512.001733-.375003.0021084-.565696l-.0015724-1.063347-.0097759-1.115154-.0135848-.875243-.0276095-1.225332-.0397872-1.29944-.0534102-1.381659-.0684784-1.471987-.0403414-.772401-.0686479-1.206962-.0789528-1.268035-.122354-1.791629-.1053686-1.423844c-.9280327-13.4679781-6.3455766-17.1943168-16.2526319-17.6500111l-.6453938-.0249261-.6578517-.0162367c-.2213602-.0040069-.4447967-.0066298-.6703096-.0079333L0 84.6799893V58.3308886h54.3764617c14.3737987 0 21.5603544-4.4066363 21.5603544-16.0726765 0-10.2578685-7.1865557-16.4747168-21.5603544-16.4747168H0V0h60.3651436ZM35.4826309 106.855431c4.4027876 0 6.2448869 2.444638 6.9011291 4.78456l.0705358.269382c.010905.044771.0213909.089467.0314676.13407l.0556278.266355.0462757.26325c.0069594.043568.0135486.08697.0197775.130189l.0331277.256961.024949.251679c.0035027.041459.0066842.082661.0095542.123588l.0135609.242127c.0016634.039757.0030348.079204.0041242.118321l.0032289.230616v12.571833H0v-19.642931h35.4826309ZM159.170835 55.7818846c-8.077793 0-12.642108 3.9065127-14.826264 9.6247726l-.163337.4434043-.154062.4503393c-.149463.4537363-.285186.9175573-.407685 1.3905096l-.11811.4759607c-.075827.3192893-.145852.6424956-.21023.9693365l-.09235.4929521c-.014692.0826012-.029036.1654207-.043034.2484542l-.079856.5007326-.036852.2522253h31.267737c-.398604-8.0263731-5.576333-14.8486872-15.135957-14.8486872Zm245.50022-54.36890205V29.9069852h-32.662164V1.41298255h32.662164Z"/>
</svg>
