<svg xmlns="http://www.w3.org/2000/svg" viewBox=".03 .03 128.09 33.65">
  <g fill="#112A46" fill-rule="evenodd">
    <path d="M70.6280442 20.0396842c0-.637412-.15878807-1.1354311-.55575825-1.4742062-.35759943-.318706-.83439868-.4973646-1.53937421-.5972738l-1.67815064-.2388659c-1.14196899-.1694966-2.00573259-.5276863-2.6715549-1.1454655-.70497553-.6472284-1.04256332-1.5632082-1.04256332-2.7187083 0-2.4700261 1.78756214-4.1427417 4.72709911-4.1427417 1.34056284 0 2.15494988.219233 3.32650131.8365759.49637586.2587169.8637636.6271594.8637636 1.0852583 0 .2290495-.07917651.4585353-.24818793.657263-.15900558.1895657-.36738774.3091077-.65559896.3091077-.2283938 0-.57576989-.1297947-.8637636-.3091077-.84396947-.5174337-1.50913922-.6967467-2.50232598-.6967467-1.66814481 0-2.5621434.9057271-2.5621434 2.2006202 0 .5178699.13899395.996038.51660503 1.3145259.35759943.318706.77436374.5180881 1.548945.6374119l1.68837397.2587169c1.29053373.1993821 2.0057326.498019 2.62130827 1.0560272.75456961.6967467 1.15219234 1.6727157 1.15219234 2.9080559 0 2.6089827-2.1053558 4.1623745-5.0842635 4.1623745-1.6983798 0-2.76095476-.3285224-3.8037356-.956118-.73455796-.4380299-1.00275754-.7366668-1.00275754-1.2547549 0-.2386477.1094115-.5174337.29778201-.7069994.17879972-.179313.39762273-.2587169.62579901-.2587169.27798789 0 .52639333.0896566.9135752.3586261.95338098.6574811 1.78756214.9059452 3.0091427.9059452 1.86673865 0 2.91909028-.796874 2.91909028-2.1908037m10.7197174-.7968741v-8.016732c0-.5276864.0095708-.697183.158788-.9759689.1590056-.2890387.4863701-.4877664.9135752-.4877664.4269877 0 .7545697.1987277.9133577.4877664.1492173.2787859.1587881.4482825.1587881.9759689v7.9174772c0 1.9017652 1.1521923 3.0869326 2.9197428 3.0869326 1.767768 0 2.9193078-1.1851674 2.9193078-3.0869326v-7.9174772c0-.5276864.0102234-.697183.1587881-.9759689.1590056-.2890387.4870226-.4877664.9140102-.4877664.4265526 0 .7545697.1987277.9135752.4877664.1485648.2787859.1587881.4482825.1587881.9759689v8.016732c0 2.928125-2.1845323 4.8996957-5.0644694 4.8996957-2.8797195 0-5.0642518-1.9715707-5.0642518-4.8996957m19.8443759 4.4719185c-.3080053-.3088896-.3080053-.6875847-.3080053-1.0062907V11.2260781c0-.5276864.0102233-.697183.1587881-.9759689.1590055-.2890387.4870225-.4877664.9135752-.4877664.4269876 0 .7550046.1987277.9140102.4877664.1485647.2787859.1587881.4482825.1587881.9759689v10.8848678h5.5808568c.4567876 0 .6549465.0200691.8735519.139393.2579763.1496457.4369935.4386843.4369935.816725 0 .3786952-.1790172.6677338-.4369935.816725-.2186054.1193239-.4167643.139393-.8735519.139393h-6.415038c-.3177937 0-.6954047 0-1.0029751-.3084533"/>
    <path d="M39.2478431 47.8907571v-8.016732c0-.5276864.0095708-.697183.1587881-.9759689.1590056-.2890387.48637-.4877664.9135752-.4877664.4269877 0 .7545696.1987277.9133577.4877664.1492173.2787859.1590056.4482825.1590056.9759689v7.9174772c0 1.9017652 1.1519748 3.0869326 2.9195253 3.0869326 1.767768 0 2.9193078-1.1851674 2.9193078-3.0869326v-7.9174772c0-.5276864.0102233-.697183.1587881-.9759689.1590055-.2890387.4870225-.4877664.9140102-.4877664.4265526 0 .7545696.1987277.9135752.4877664.1485647.2787859.1587881.4482825.1587881.9759689v8.016732c0 2.928125-2.1845324 4.8996957-5.0644694 4.8996957-2.8797195 0-5.0642519-1.9715707-5.0642519-4.8996957" mask="url(#j)" transform="translate(78.741462 -28.647947)"/>
    <path fill-rule="nonzero" d="M45.0353535 19.1968719c.4515994-.6780058.2257997-1.4690127-.4515993-1.9210166L33.97117 9.93079179c-.677399-.45200391-1.2418981-1.35601173-1.3547979-2.14701857l-.7902989-6.78005865c-.1128998-.79100685-.7902988-1.13000978-1.4676978-.90400783L1.00441919 9.3657869c-.79029882.22600196-1.12899831 1.0170088-.90319865 1.6950147l5.64499158 15.5941349c.22579966.6780058 1.12899832 1.4690127 1.80639731 1.5820136l26.64436027 5.424047c.7902988.1130009 1.6934975-.226002 2.1450968-.9040079l8.693287-13.5601173Zm-24.1605639-6.8930596c-.4515994.5650049-1.4676978 1.0170088-2.2579967.7910069L6.19781145 10.6087977c-.79029882-.113001-.79029882-.452004 0-.67800591l20.77356905-6.5540567c.7902988-.22600195 1.0160985.11300098.5644991.67800587l-6.66109 8.24907134Zm8.4674873-7.68406645c.4515994-.56500489.9031987-.45200391 1.0160985.22600195l2.4837963 23.0521994c.1128998.7910069-.2257996.9040078-.677399.226002L22.568287 15.5808407c-.4515993-.5650049-.4515993-1.5820137 0-2.1470186l6.7739899-8.81407625ZM3.03661616 12.9818182c-.22579966-.6780059.11289983-1.1300098.90319865-1.0170088l14.56407829 3.0510264c.7902988.113001 1.8063973.7910068 2.2579966 1.3560117l10.4996844 13.6731183c.4515993.5650049.2257996 1.0170088-.5644992.7910068L9.13320707 26.5419355c-.79029882-.113001-1.58059764-.9040078-1.80639731-1.5820137l-4.2901936-11.9781036Zm30.25715484.113001c-.1128998-.7910069.3386995-1.0170088 1.0160985-.5650049l7.6771886 5.3110459c.677399.4520039.7902988 1.3560117.4515993 1.9210166l-6.4352904 9.9440861c-.4515993.6780058-.7902988.5650048-.9031986-.226002L33.293771 13.0948192Z"/>
  </g>
</svg>
